# xmcd
#
# Track frame offsets: 
#        150
#        15048
#        31504
#        50735
#        68115
#        82730
#        99515
#        118718
#        135966
#        152204
#        174901
#        189704
#
# Disc length: 2714 seconds
#
# Revision: 0
# Processed by: cddbd v1.5.2PL0 Copyright (c) Steve Scherf et al.
# Submitted via: ExactAudioCopy v0.99pb5
#
DISCID=840a980c
DTITLE=James Morrison - Higher Than Here
DYEAR=2015
DGENRE=A Cappella
TTITLE0=Demons
TTITLE1=Stay Like This
TTITLE2=Heaven To A Fool
TTITLE3=Right Here
TTITLE4=Reach Out
TTITLE5=We Can
TTITLE6=Too Late For Lullabies
TTITLE7=Something Right
TTITLE8=Easy Love
TTITLE9=I Need You Tonight
TTITLE10=Just Like A Child
TTITLE11=Higher Than Here
EXTD=
EXTT0=
EXTT1=
EXTT2=
EXTT3=
EXTT4=
EXTT5=
EXTT6=
EXTT7=
EXTT8=
EXTT9=
EXTT10=
EXTT11=
PLAYORDER=
